<?xml version="1.0" standalone="no"?>
<!DOCTYPE svg PUBLIC "-//W3C//DTD SVG 20010904//EN"
 "http://www.w3.org/TR/2001/REC-SVG-20010904/DTD/svg10.dtd">
<svg version="1.0" xmlns="http://www.w3.org/2000/svg"
 width="592.000000pt" height="296.000000pt" viewBox="0 0 592.000000 296.000000"
 preserveAspectRatio="xMidYMid meet">

<g transform="translate(0.000000,296.000000) scale(0.100000,-0.100000)"
fill="#fff" stroke="none">
<path d="M378 2363 c-62 -65 -114 -150 -151 -247 -26 -70 -30 -95 -31 -181 0
-169 43 -242 294 -500 232 -237 322 -362 364 -504 17 -60 20 -155 7 -213 l-9
-38 27 23 c67 55 132 168 152 267 16 74 6 209 -21 295 -47 149 -107 250 -303
513 -111 148 -193 278 -232 365 -30 70 -57 196 -49 236 4 17 5 31 2 31 -2 0
-25 -21 -50 -47z"/>
<path d="M1424 2219 c-46 -13 -91 -69 -99 -121 -3 -24 -5 -374 -3 -778 3 -819
-1 -766 71 -810 31 -20 67 -20 1961 -20 1916 0 1929 0 1961 20 68 42 65 6 65
847 0 860 5 808 -80 851 l-44 22 -1901 -1 c-1112 0 -1913 -5 -1931 -10z m734
-314 c67 -25 72 -29 72 -56 0 -37 -21 -89 -44 -108 -14 -12 -26 -11 -84 9
-136 45 -228 37 -253 -21 -20 -50 8 -75 157 -138 150 -64 209 -113 237 -196
21 -61 21 -87 1 -156 -55 -186 -337 -248 -577 -128 -54 28 -58 32 -52 57 7 30
50 108 64 117 5 3 24 -3 43 -14 55 -33 154 -61 211 -61 72 0 107 26 107 79 0
51 -20 68 -170 139 -188 89 -230 134 -230 252 0 101 58 189 150 228 63 27 94
31 195 28 78 -3 116 -10 173 -31z m1475 -1 c86 -31 91 -41 62 -111 -31 -73
-35 -74 -132 -41 -141 49 -243 29 -243 -46 0 -33 35 -60 125 -99 230 -98 285
-155 285 -293 0 -163 -126 -264 -327 -264 -125 0 -313 61 -313 102 0 27 28 89
52 115 l21 22 46 -23 c163 -83 310 -71 311 25 0 46 -34 73 -159 128 -207 91
-270 172 -240 309 19 90 83 159 181 194 79 28 226 20 331 -18z m-819 12 c113
-34 175 -109 184 -221 7 -99 -11 -149 -78 -215 l-56 -56 23 -18 c26 -19 46
-59 89 -171 15 -38 35 -79 45 -91 27 -30 24 -41 -21 -64 -43 -22 -106 -26
-144 -9 -24 11 -60 78 -86 164 -34 108 -69 145 -137 145 l-43 0 0 -155 c0
-180 9 -168 -120 -163 l-75 3 -3 420 c-1 231 0 426 3 432 7 19 356 18 419 -1z
m-1106 -1023 c2 -9 -7 -13 -27 -13 -39 0 -39 -10 0 -32 24 -14 30 -23 27 -45
-3 -26 -6 -28 -47 -28 -28 0 -46 5 -49 14 -3 10 3 12 26 6 41 -9 50 11 12 30
-16 8 -30 17 -30 19 0 3 -3 11 -6 19 -8 23 25 48 59 45 17 -2 32 -9 35 -15z
m90 -35 c9 -56 11 -55 28 30 3 15 11 22 22 20 12 -2 20 -20 28 -58 l10 -55 10
54 c5 30 15 56 22 59 15 5 15 -21 1 -88 -9 -42 -14 -50 -34 -50 -19 0 -24 7
-30 48 -8 50 -10 49 -20 -10 -5 -31 -10 -38 -29 -38 -19 0 -25 7 -29 38 -4 20
-9 52 -13 70 -5 25 -3 32 9 32 11 0 18 -16 25 -52z m282 37 c0 -10 -10 -15
-30 -15 -20 0 -30 -5 -30 -15 0 -9 9 -15 25 -15 31 0 33 -17 3 -22 -33 -4 -29
-32 5 -36 44 -5 31 -22 -18 -22 l-45 0 0 70 0 70 45 0 c33 0 45 -4 45 -15z
m150 0 c0 -8 -8 -15 -17 -15 -15 0 -18 -8 -15 -55 4 -50 2 -55 -17 -55 -19 0
-21 6 -21 55 0 42 -3 55 -15 55 -8 0 -15 7 -15 15 0 11 12 15 50 15 38 0 50
-4 50 -15z m129 -47 c12 -34 21 -66 21 -70 0 -14 -30 -8 -36 7 -4 8 -15 15
-25 15 -11 0 -22 -7 -25 -15 -6 -16 -34 -21 -34 -7 0 4 9 36 21 70 15 46 26
62 39 62 13 0 24 -16 39 -62z m158 45 c3 -7 -9 -13 -29 -15 l-33 -4 33 -19
c62 -38 50 -88 -20 -83 -21 2 -38 8 -38 13 1 6 14 9 31 7 38 -3 38 18 -1 40
-50 28 -33 82 24 76 16 -2 31 -8 33 -15z m128 -28 l11 -40 10 40 c7 30 15 41
32 43 20 3 22 -1 22 -36 0 -22 3 -54 6 -71 5 -24 3 -31 -9 -31 -12 0 -17 12
-19 48 l-3 47 -11 -35 c-7 -24 -16 -35 -29 -35 -13 0 -22 11 -29 35 l-11 35
-3 -47 c-2 -36 -7 -48 -19 -48 -12 0 -14 7 -9 31 3 17 6 49 6 71 0 35 3 39 22
36 15 -2 25 -14 33 -43z m175 -25 c0 -56 -3 -70 -15 -70 -12 0 -15 14 -15 70
0 56 3 70 15 70 12 0 15 -14 15 -70z m160 55 c0 -8 -9 -15 -20 -15 -18 0 -20
-7 -20 -55 0 -42 -3 -55 -15 -55 -12 0 -15 13 -15 55 0 42 -3 55 -15 55 -8 0
-15 7 -15 15 0 11 12 15 50 15 38 0 50 -4 50 -15z m124 -42 c10 -32 21 -64 23
-70 3 -7 -2 -13 -11 -13 -9 0 -19 7 -22 15 -4 8 -17 15 -30 15 -15 0 -24 -6
-24 -15 0 -8 -7 -15 -15 -15 -18 0 -18 3 0 65 22 74 23 75 43 75 14 0 23 -15
36 -57z m244 45 c15 -15 16 -55 2 -63 -7 -4 -7 -11 -2 -18 20 -27 22 -47 3
-47 -12 0 -21 10 -25 25 -4 14 -13 25 -21 25 -9 0 -15 -10 -15 -25 0 -16 -6
-25 -15 -25 -12 0 -15 14 -15 70 l0 70 38 0 c21 0 43 -5 50 -12z m168 -60 c22
-66 22 -68 3 -68 -10 0 -19 7 -19 15 0 9 -9 15 -24 15 -13 0 -26 -7 -30 -15
-3 -8 -12 -15 -20 -15 -11 0 -11 10 5 61 23 75 27 81 47 77 9 -2 24 -30 38
-70z m131 27 l18 -45 5 42 c3 23 11 43 18 46 9 3 12 -15 12 -67 0 -62 -2 -71
-18 -71 -11 0 -26 16 -39 43 l-22 42 0 -42 c-1 -31 -5 -43 -16 -43 -12 0 -15
14 -15 70 0 62 2 70 19 70 13 0 25 -14 38 -45z m181 -22 l-3 -68 -32 -3 c-24
-2 -33 1 -33 11 0 8 8 14 18 13 14 -1 18 9 20 57 2 43 7 57 18 57 12 0 14 -13
12 -67z m159 2 c12 -33 22 -63 22 -67 2 -15 -30 -8 -35 7 -4 8 -17 15 -30 15
-15 0 -24 -6 -24 -15 0 -8 -9 -15 -19 -15 -20 0 -20 1 0 58 10 31 21 63 24 70
11 31 41 5 62 -53z m132 20 c11 -25 22 -45 25 -45 3 0 4 19 3 41 -1 26 3 44
11 46 9 4 12 -14 12 -66 0 -63 -2 -71 -19 -71 -13 0 -25 15 -39 48 l-20 47 -1
-47 c-1 -36 -5 -48 -16 -48 -12 0 -15 14 -15 70 0 63 2 70 20 70 13 0 25 -14
39 -45z m275 39 c26 -10 18 -24 -14 -24 -38 0 -38 -10 1 -32 24 -14 30 -23 27
-45 -3 -26 -6 -28 -47 -28 -28 0 -46 5 -49 14 -3 10 3 12 26 6 44 -9 48 10 7
34 -38 22 -44 41 -19 65 16 17 41 20 68 10z m162 -51 c9 -32 19 -64 21 -70 3
-7 -2 -13 -11 -13 -9 0 -19 7 -22 15 -4 8 -17 15 -30 15 -15 0 -24 -6 -24 -15
0 -8 -7 -15 -15 -15 -19 0 -19 4 6 78 28 84 52 85 75 5z m114 27 c0 -23 4 -30
20 -30 16 0 20 7 20 30 0 20 5 30 15 30 12 0 15 -14 15 -70 0 -56 -3 -70 -15
-70 -10 0 -15 10 -15 30 0 23 -4 30 -20 30 -16 0 -20 -7 -20 -30 0 -20 -5 -30
-15 -30 -12 0 -15 14 -15 70 0 56 3 70 15 70 10 0 15 -10 15 -30z m232 13 c20
-18 24 -73 8 -104 -13 -24 -72 -26 -91 -3 -21 25 -17 93 6 110 25 19 54 18 77
-3z m172 1 c19 -18 22 -94 4 -112 -16 -16 -73 -15 -86 1 -11 13 -15 38 -13 74
1 29 27 53 56 53 13 0 31 -7 39 -16z"/>
<path d="M2590 1655 l0 -126 63 6 c34 4 75 11 90 17 79 30 74 179 -7 213 -20
8 -60 15 -91 15 l-55 0 0 -125z"/>
<path d="M2310 846 c0 -14 5 -26 10 -26 6 0 10 9 10 19 0 11 -4 23 -10 26 -6
4 -10 -5 -10 -19z"/>
<path d="M3060 863 c0 -6 -3 -18 -6 -27 -4 -11 -1 -16 10 -16 9 0 16 6 16 13
0 16 -20 46 -20 30z"/>
<path d="M3293 874 c-7 -19 11 -39 26 -30 16 10 13 33 -4 40 -9 3 -18 -1 -22
-10z"/>
<path d="M3467 856 c-11 -27 -8 -36 8 -36 16 0 17 5 6 34 -7 18 -8 18 -14 2z"/>
<path d="M3941 863 c-1 -6 -4 -18 -7 -27 -4 -11 -1 -16 10 -16 18 0 19 6 6 35
-5 11 -9 15 -9 8z"/>
<path d="M4508 846 c-4 -18 -1 -26 8 -26 16 0 18 18 5 38 -6 10 -10 7 -13 -12z"/>
<path d="M4851 881 c-7 -5 -11 -23 -9 -47 2 -31 7 -39 23 -39 16 0 21 8 23 36
3 38 -15 63 -37 50z"/>
<path d="M5021 881 c-7 -5 -11 -23 -9 -47 2 -31 7 -39 23 -39 16 0 21 8 23 36
3 38 -15 63 -37 50z"/>
<path d="M366 1360 c-21 -23 -52 -72 -70 -109 -26 -56 -31 -77 -31 -141 1
-107 27 -152 185 -315 185 -191 230 -268 230 -393 l0 -65 26 24 c43 40 76 117
82 190 9 124 -39 233 -193 443 -120 164 -174 266 -183 348 l-7 61 -39 -43z"/>
</g>
</svg>
